<mxfile host="www.draw.io" modified="2020-09-14T11:20:34.253Z" agent="5.0 (Windows NT 10.0; Win64; x64) AppleWebKit/537.36 (KHTML, like Gecko) Chrome/80.0.3987.87 Safari/537.36" etag="7Wau7TWhJ43e5czuVsPw" version="13.6.10" type="github">
  <diagram id="rJhUS_bfxaLjks6qB_3f" name="第 1 页">
    <mxGraphModel dx="1788" dy="1010" grid="1" gridSize="10" guides="1" tooltips="1" connect="1" arrows="1" fold="1" page="1" pageScale="1" pageWidth="827" pageHeight="1169" math="0" shadow="0">
      <root>
        <mxCell id="0" />
        <mxCell id="1" parent="0" />
        <mxCell id="2kWBn9G0TiPG7fvnZV3T-3" style="edgeStyle=orthogonalEdgeStyle;rounded=0;orthogonalLoop=1;jettySize=auto;html=1;entryX=0;entryY=0.5;entryDx=0;entryDy=0;fontSize=14;" parent="1" source="2kWBn9G0TiPG7fvnZV3T-1" target="2kWBn9G0TiPG7fvnZV3T-2" edge="1">
          <mxGeometry relative="1" as="geometry" />
        </mxCell>
        <mxCell id="2kWBn9G0TiPG7fvnZV3T-1" value="合作意向交流" style="strokeWidth=2;html=1;shape=mxgraph.flowchart.start_2;whiteSpace=wrap;fillColor=#ffe6cc;strokeColor=#d79b00;fontSize=14;" parent="1" vertex="1">
          <mxGeometry x="40" y="245" width="90" height="70" as="geometry" />
        </mxCell>
        <mxCell id="2kWBn9G0TiPG7fvnZV3T-5" value="" style="edgeStyle=orthogonalEdgeStyle;rounded=0;orthogonalLoop=1;jettySize=auto;html=1;fontSize=14;" parent="1" source="2kWBn9G0TiPG7fvnZV3T-2" target="2kWBn9G0TiPG7fvnZV3T-4" edge="1">
          <mxGeometry relative="1" as="geometry" />
        </mxCell>
        <mxCell id="2kWBn9G0TiPG7fvnZV3T-2" value="&lt;font style=&quot;font-size: 14px&quot;&gt;甲方整理需求&lt;br style=&quot;font-size: 14px;&quot;&gt;提供产品设计原型&lt;/font&gt;" style="rounded=1;whiteSpace=wrap;html=1;absoluteArcSize=1;arcSize=14;strokeWidth=2;fillColor=#d5e8d4;strokeColor=#82b366;fontSize=14;" parent="1" vertex="1">
          <mxGeometry x="210" y="250" width="140" height="60" as="geometry" />
        </mxCell>
        <mxCell id="2kWBn9G0TiPG7fvnZV3T-7" value="" style="edgeStyle=orthogonalEdgeStyle;rounded=0;orthogonalLoop=1;jettySize=auto;html=1;fontSize=14;" parent="1" source="2kWBn9G0TiPG7fvnZV3T-4" target="2kWBn9G0TiPG7fvnZV3T-6" edge="1">
          <mxGeometry relative="1" as="geometry" />
        </mxCell>
        <mxCell id="2kWBn9G0TiPG7fvnZV3T-4" value="&lt;font style=&quot;font-size: 14px&quot;&gt;乙方提供&lt;br style=&quot;font-size: 14px;&quot;&gt;产品报价&lt;br style=&quot;font-size: 14px;&quot;&gt;产品开发周期&lt;/font&gt;" style="rounded=1;whiteSpace=wrap;html=1;absoluteArcSize=1;arcSize=14;strokeWidth=2;fillColor=#d5e8d4;strokeColor=#82b366;fontSize=14;" parent="1" vertex="1">
          <mxGeometry x="410" y="250" width="125" height="60" as="geometry" />
        </mxCell>
        <mxCell id="2kWBn9G0TiPG7fvnZV3T-9" value="" style="edgeStyle=orthogonalEdgeStyle;rounded=0;orthogonalLoop=1;jettySize=auto;html=1;fontSize=14;" parent="1" source="2kWBn9G0TiPG7fvnZV3T-6" target="2kWBn9G0TiPG7fvnZV3T-8" edge="1">
          <mxGeometry relative="1" as="geometry" />
        </mxCell>
        <mxCell id="2kWBn9G0TiPG7fvnZV3T-6" value="&lt;font style=&quot;font-size: 14px&quot;&gt;双方确认达成意向&lt;br style=&quot;font-size: 14px;&quot;&gt;甲方支付意向金&lt;br style=&quot;font-size: 14px;&quot;&gt;意向金会作为项目款的一部分&amp;nbsp;&lt;/font&gt;" style="rounded=1;whiteSpace=wrap;html=1;absoluteArcSize=1;arcSize=14;strokeWidth=2;fillColor=#d5e8d4;strokeColor=#82b366;fontSize=14;" parent="1" vertex="1">
          <mxGeometry x="590" y="250" width="195" height="60" as="geometry" />
        </mxCell>
        <mxCell id="2kWBn9G0TiPG7fvnZV3T-11" value="" style="edgeStyle=orthogonalEdgeStyle;rounded=0;orthogonalLoop=1;jettySize=auto;html=1;fontSize=14;" parent="1" source="2kWBn9G0TiPG7fvnZV3T-8" target="2kWBn9G0TiPG7fvnZV3T-10" edge="1">
          <mxGeometry relative="1" as="geometry" />
        </mxCell>
        <mxCell id="2kWBn9G0TiPG7fvnZV3T-8" value="&lt;font style=&quot;font-size: 14px&quot;&gt;乙方动工开发&lt;br style=&quot;font-size: 14px;&quot;&gt;核心产品DEMO&lt;br style=&quot;font-size: 14px;&quot;&gt;（达到初级产品演示程度）&lt;/font&gt;" style="rounded=1;whiteSpace=wrap;html=1;absoluteArcSize=1;arcSize=14;strokeWidth=2;fillColor=#dae8fc;strokeColor=#6c8ebf;fontSize=14;" parent="1" vertex="1">
          <mxGeometry x="840" y="250" width="170" height="60" as="geometry" />
        </mxCell>
        <mxCell id="AhFxIOC3nw4D0hdxIUdh-3" style="edgeStyle=orthogonalEdgeStyle;rounded=0;orthogonalLoop=1;jettySize=auto;html=1;fontSize=14;" edge="1" parent="1" source="2kWBn9G0TiPG7fvnZV3T-10" target="2kWBn9G0TiPG7fvnZV3T-12">
          <mxGeometry relative="1" as="geometry" />
        </mxCell>
        <mxCell id="2kWBn9G0TiPG7fvnZV3T-10" value="&lt;font style=&quot;font-size: 14px&quot;&gt;甲方DEMO审核，审核通过后签署正式商务合同&lt;br style=&quot;font-size: 14px;&quot;&gt;甲方支付30%合同款&lt;/font&gt;" style="rounded=1;whiteSpace=wrap;html=1;absoluteArcSize=1;arcSize=14;strokeWidth=2;fillColor=#dae8fc;strokeColor=#6c8ebf;fontSize=14;" parent="1" vertex="1">
          <mxGeometry x="843.13" y="380" width="163.75" height="60" as="geometry" />
        </mxCell>
        <mxCell id="AhFxIOC3nw4D0hdxIUdh-4" style="edgeStyle=orthogonalEdgeStyle;rounded=0;orthogonalLoop=1;jettySize=auto;html=1;entryX=1;entryY=0.5;entryDx=0;entryDy=0;fontSize=14;" edge="1" parent="1" source="2kWBn9G0TiPG7fvnZV3T-12" target="2kWBn9G0TiPG7fvnZV3T-14">
          <mxGeometry relative="1" as="geometry" />
        </mxCell>
        <mxCell id="2kWBn9G0TiPG7fvnZV3T-12" value="&lt;font style=&quot;font-size: 14px&quot;&gt;签署合同后&lt;br style=&quot;font-size: 14px;&quot;&gt;乙方开始完成 剩余需求开发&lt;/font&gt;" style="rounded=1;whiteSpace=wrap;html=1;absoluteArcSize=1;arcSize=14;strokeWidth=2;fillColor=#e1d5e7;strokeColor=#9673a6;fontSize=14;" parent="1" vertex="1">
          <mxGeometry x="590" y="380" width="190" height="60" as="geometry" />
        </mxCell>
        <mxCell id="2kWBn9G0TiPG7fvnZV3T-17" value="" style="edgeStyle=orthogonalEdgeStyle;rounded=0;orthogonalLoop=1;jettySize=auto;html=1;fontSize=14;" parent="1" source="2kWBn9G0TiPG7fvnZV3T-14" target="2kWBn9G0TiPG7fvnZV3T-16" edge="1">
          <mxGeometry relative="1" as="geometry" />
        </mxCell>
        <mxCell id="AhFxIOC3nw4D0hdxIUdh-9" value="" style="edgeStyle=orthogonalEdgeStyle;rounded=0;orthogonalLoop=1;jettySize=auto;html=1;fontSize=14;entryX=0.5;entryY=0.108;entryDx=0;entryDy=0;entryPerimeter=0;" edge="1" parent="1" source="2kWBn9G0TiPG7fvnZV3T-14" target="AhFxIOC3nw4D0hdxIUdh-8">
          <mxGeometry relative="1" as="geometry" />
        </mxCell>
        <mxCell id="2kWBn9G0TiPG7fvnZV3T-14" value="&lt;font style=&quot;font-size: 14px&quot;&gt;完成开发，甲方验收&lt;br style=&quot;font-size: 14px&quot;&gt;验收通过，支付60%&lt;br style=&quot;font-size: 14px&quot;&gt;乙方提供产品部署包&lt;br style=&quot;font-size: 14px&quot;&gt;&lt;/font&gt;" style="rounded=1;whiteSpace=wrap;html=1;absoluteArcSize=1;arcSize=14;strokeWidth=2;fillColor=#e1d5e7;strokeColor=#9673a6;fontSize=14;" parent="1" vertex="1">
          <mxGeometry x="400" y="380" width="150" height="60" as="geometry" />
        </mxCell>
        <mxCell id="AhFxIOC3nw4D0hdxIUdh-7" style="edgeStyle=orthogonalEdgeStyle;rounded=0;orthogonalLoop=1;jettySize=auto;html=1;fontSize=14;" edge="1" parent="1" source="2kWBn9G0TiPG7fvnZV3T-16" target="2kWBn9G0TiPG7fvnZV3T-20">
          <mxGeometry relative="1" as="geometry" />
        </mxCell>
        <mxCell id="2kWBn9G0TiPG7fvnZV3T-16" value="&lt;font style=&quot;font-size: 14px&quot;&gt;半年后支付剩余10% 售后保障金&lt;/font&gt;" style="rounded=1;whiteSpace=wrap;html=1;absoluteArcSize=1;arcSize=14;strokeWidth=2;fillColor=#f8cecc;strokeColor=#b85450;fontSize=14;" parent="1" vertex="1">
          <mxGeometry x="205" y="380" width="145" height="60" as="geometry" />
        </mxCell>
        <mxCell id="2kWBn9G0TiPG7fvnZV3T-20" value="&lt;font style=&quot;font-size: 14px&quot;&gt;归档&lt;/font&gt;" style="strokeWidth=2;html=1;shape=mxgraph.flowchart.start_1;whiteSpace=wrap;fillColor=#f8cecc;strokeColor=#b85450;fontSize=14;" parent="1" vertex="1">
          <mxGeometry x="30" y="380" width="100" height="60" as="geometry" />
        </mxCell>
        <mxCell id="AhFxIOC3nw4D0hdxIUdh-8" value="如果需要产品源码，&lt;br style=&quot;font-size: 14px;&quot;&gt;以及需要二次开发&lt;br style=&quot;font-size: 14px;&quot;&gt;可选择加购产品源码" style="ellipse;shape=cloud;whiteSpace=wrap;html=1;rounded=1;strokeColor=#9673a6;strokeWidth=2;fillColor=#e1d5e7;arcSize=14;fontSize=14;" vertex="1" parent="1">
          <mxGeometry x="377.5" y="465" width="195" height="120" as="geometry" />
        </mxCell>
      </root>
    </mxGraphModel>
  </diagram>
</mxfile>
